# xmcd
#
# Track frame offsets: 
#        150
#        16178
#        38236
#        56516
#        74572
#        91683
#        101737
#        113696
#        127449
#        142460
#        159894
#        175818
#        193545
#        209369
#        226410
#        244451
#        260716
#        274553
#        292447
#        309113
#        326209
#        343761
#        359648
#
# Disc length: 5024 seconds
#
# Revision: 0
# Processed by: cddbd v1.5.2PL0 Copyright (c) Steve Scherf et al.
# Submitted via: ExactAudioCopy v0.99pb4
#
DISCID=72139e17
DTITLE=Bohannon - Brunswick Complete Singles Collection Bohannon
DYEAR=1975
DGENRE=Soul
TTITLE0=Stop And Go
TTITLE1=Save Their Souls
TTITLE2=The Pimp Walk
TTITLE3=Happiness
TTITLE4=Run It On Down Mr. D.J. - Part 1
TTITLE5=Run It On Down Mr. D.J. - Part 2
TTITLE6=The Fat Man
TTITLE7=Red Bone
TTITLE8=Truck Stop
TTITLE9=Keep On Dancing - Part 1
TTITLE10=Keep On Dancing - Part 2
TTITLE11=South African Man - Part 1
TTITLE12=Have A Good Day
TTITLE13=Foot Stompin Music
TTITLE14=Dance With Your Parno
TTITLE15=Disco Stomp - Part 1
TTITLE16=Disco Stomp - Part 2
TTITLE17=Bohannon's Beat (Part 1)
TTITLE18=East Coast Groove
TTITLE19=Dance Your Ass Off
TTITLE20=Happy Feeling
TTITLE21=Gittin' Off
TTITLE22=Come Winter
EXTD=
EXTT0=
EXTT1=
EXTT2=
EXTT3=
EXTT4=
EXTT5=
EXTT6=
EXTT7=
EXTT8=
EXTT9=
EXTT10=
EXTT11=
EXTT12=
EXTT13=
EXTT14=
EXTT15=
EXTT16=
EXTT17=
EXTT18=
EXTT19=
EXTT20=
EXTT21=
EXTT22=
PLAYORDER=
